<svg xmlns="http://www.w3.org/2000/svg" xmlns:xlink="http://www.w3.org/1999/xlink" width="84" height="55" viewBox="0 0 84 55">
    <defs>
        
    </defs>
    <g fill="none" fill-rule="evenodd">
        <g>
            <g>
                <g>
                    <path fill="#090A0F" d="M6.646 51.244L6.646 53.897 4.583 51.244 3.98 51.244 3.98 54.892 4.588 54.892 4.588 52.209 6.692 54.892 7.259 54.892 7.259 51.244zM11.846 51.244L11.846 54.892 14.506 54.892 14.506 54.34 12.454 54.34 12.454 53.314 13.924 53.314 13.924 52.792 12.454 52.792 12.454 51.797 14.382 51.797 14.382 51.244zM23.249 51.244L22.403 54.09 21.395 51.244 20.885 51.244 19.924 54.09 19.015 51.244 18.402 51.244 19.623 54.892 20.21 54.892 21.145 52.167 22.133 54.892 22.715 54.892 23.863 51.244zM33.114 51.244L33.114 51.791 35.338 51.791 33.005 54.387 33.005 54.892 36.143 54.892 36.143 54.335 33.831 54.335 36.128 51.771 36.128 51.244zM40.475 51.244L40.475 54.892 43.135 54.892 43.135 54.34 41.083 54.34 41.083 53.314 42.554 53.314 42.554 52.792 41.083 52.792 41.083 51.797 43.011 51.797 43.011 51.244zM48.616 51.244L47 54.892h.676l.317-.771h1.844l.316.771h.67l-1.62-3.648h-.587zm.291.647l.696 1.673h-1.382l.686-1.673zM54.954 51.244L54.954 54.892 57.479 54.892 57.479 54.34 55.562 54.34 55.562 51.244zM62.83 51.244l-1.616 3.648h.675l.317-.771h1.844l.317.771h.67l-1.62-3.648h-.588zm.29.647l.697 1.673h-1.383l.687-1.673zM71.834 51.244L71.834 53.897 69.771 51.244 69.168 51.244 69.168 54.892 69.776 54.892 69.776 52.209 71.88 54.892 72.447 54.892 72.447 51.244z" transform="translate(-144 -76) translate(0 66) translate(144 10)"/>
                    <g>
                        <path fill="#090A0F" d="M77.636 53.938c.099.005.307.005.416 0 .883-.021 1.575-.412 1.575-1.288 0-.97-.842-1.267-1.58-1.267-.047 0-.244-.005-.41 0v2.555zm-.602-3.102c.197-.005.696-.01.893-.01 1.268.005 2.313.505 2.313 1.809 0 1.22-.915 1.86-2.313 1.86-.134 0-.623 0-.893-.01v-3.649z" transform="translate(-144 -76) translate(0 66) translate(144 10) translate(0 .408)"/>
                        <g transform="translate(-144 -76) translate(0 66) translate(144 10) translate(0 .408) translate(0 27.752)">
                            <mask id="l9cc7ch5yb" fill="#090A0F">
                                <use xlink:href="#63d55cyxpa"/>
                            </mask>
                            
                        </g>
                        <path fill="#090A0F" d="M33.795 31.353v7.121c0 2.354-2.18 3.917-4.687 3.917H23.85c-2.707 0-4.687-1.686-4.687-4.15v-6.888h3.304v7.121c0 .702.409 1.049 1.383 1.049h5.257c.975 0 1.383-.347 1.383-1.049v-7.121h3.304M61.624 34.178l-6.421.001c-.54 0-.887.29-.887.929v3.62c0 .403.256.794.882.794h6.488c.538 0 .824-.425.824-.757h-4.725v-2.401h8.03v.18c0 .889.037 1.55.037 2.248 0 2.013-.272 3.6-3.12 3.6H54.16c-1.6 0-3.146-.37-3.146-2.772v-5.485c0-2.404 1.567-2.782 3.156-2.782l8.376-.001c2.47 0 3.268 1.031 3.268 2.64l-.004 1.3h-3.303v-.18c0-.505-.23-.934-.882-.934M43.624 40.65l-5.188-5.995-.014 7.736H35.12V31.293h4.805l6.525 7.456-.003-7.396h3.304v11.109h-4.598c-.202-.235-1.22-1.448-1.528-1.812M71.623 42.462L71.623 38.663 66.057 31.357 70.125 31.357 73.512 35.749 76.558 31.357 80.411 31.357 75.057 38.68 75.057 42.462zM14.338 39.522h-7.26l-.007-1.398h7.267c.745 0 .79 1.398 0 1.398zm-7.26-5.343h6.862c.372 0 .592.283.592.641 0 .357-.22.64-.592.64l-6.862.003V34.18zm9.938 2.51c.483-.346.846-.728.846-1.983v-.783c0-1.842-.792-2.57-2.35-2.57H5.471c-.506.028-1.67.274-1.67 1.948v9.09h11.643c1.917 0 2.898-1.238 2.898-2.448.04-.23.061-.672.061-.899 0-1.12-.425-1.945-1.387-2.356zM36.725 13.751c.412.138.606.255.606.485 0 .231-.1 3.6-.115 4.089-.014.489-.072 1.573-.072 1.573s.537-.072.766-.13c.23-.057.516-.114.516-.114s.115-2.736.215-3.455c.1-.72.086-1.66.216-2.264.128-.605.22-1.2.493-1.157.272.043.416.187.63.202.216.014.388.052.402.2.014.15.014 2.099-.015 2.56-.029.46.073 1.938.044 2.282-.029.346 0 1.137 0 1.137s1.402-.532 1.876-.69c.472-.158 1.238-.63 1.711-.524.474.106.918.538.775.94-.144.403-.258.662-.46.605-.2-.058-.128-.216-.315-.144-.186.072-.435.13-1.095 1.459-.66 1.329-.904 1.795-.688 2.01.215.216.424.245 1.09-.796.665-1.042.952-2.006 1.18-2.164.23-.158.345-.337.517-.337.172 0 .58-.08.608.078.029.159.072.584-.029 1.165-.1.582-.143.826-.143 1.113 0 .289-.112.685-.078.82.035.136.293.323.48.194.186-.13.501-.467.501-.467s.043-1.329.2-1.76c.159-.432.523-1.77 1.054-2.38.53-.61 1.038-.825 1.41-.753.373.072.545.351.589.581.042.23 0 1.145-.086 1.38-.086.237-.187.41-.402.395-.215-.014-.252-.23-.488-.086-.235.143-.568.685-.637.935-.085.316-.378 1.731.116 1.775.493.043 1.11-.843 1.497-1.266.386-.423.406-.222.564-.178.158.042.287.028.287.028s.13-2.73.244-3.42c.115-.69.258-3.603.502-4.082.244-.48.565-.668.866-.64.301.03.646.395.602.783-.043.388-.057 1.473-.172 1.847-.115.374-.272 2.471-.272 2.471s1.239-.912 1.34-1.099c.1-.187.544-.854.759-.955.215-.1.507.095.594.273.086.18.335.61.114.999-.22.388-.55.97-.737 1.084-.186.115-.98.792-1.167.85-.186.057-.23.129-.23.129s.293.753.551 1.055c.258.303.588.998.76 1.157.172.158.33.403.43.561.1.158.187.345.057.388-.128.043-.796.403-1.132.187-.336-.216-.723-.633-.895-.863-.172-.23-.344-.624-.402-.753-.057-.13-.157-.432-.272-.374-.114.057-.272 1.142-.258 1.372.014.23-.008 1.127-.028 1.271-.02.144-.107.245-.307.144-.2-.1-.775-.345-.89-.489-.114-.144-.143-.624-.143-.624s-.25.437-.507.725c-.258.288-.91.863-1.354.95-.445.085-1.205-.216-1.32-.375-.114-.158-.335-.36-.335-.36s-.344.49-.53.59c-.187.101-.651.43-.995.423-.344-.005-.775-.265-.918-.538-.143-.273-.258-.475-.258-.475s-.537.475-.737.691c-.201.216-.884.682-1.147.768-.264.086-.924.113-1.21-.342-.288-.455-.629-.918-.144-2.575.33-1.128.588-1.545.588-1.545l-1.11.274s-.072 2.111-.072 2.543c0 .431.044.957.058 1.194.014.235.129.595-.029.695-.157.101-.703.231-.946.044-.244-.187-.766-.533-.838-1.545-.072-1.013-.129-2.35-.129-2.35l-.774.23c-.293.086-.622.187-.622.187s-.072 1.818-.058 2.106c.015.287.058 1.012 0 1.358-.057.345-.129.675-.286.675-.158 0-.824-.043-.91-.273-.086-.23-.3-.656-.3-.935s-.087-2.974-.087-2.974-.73-.495-.73-.84c0-.346-.173-.533.013-.634.187-.1.775-.158.775-.158s.057-2.52.171-3.642c.116-1.122.052-1.674.173-2.034.12-.36.263-.432.45-.49.187-.056.484.02.484.02M63.32 23.62c.693.148.347.496.1.694-.248.199-.544.398-.544.398h-5.244c-1.039 0-11.477.843-12.862.992-1.385.149-6.778.844-7.52.993-.741.148-1.039.496-1.484.098-.445-.396-.593-.496-.099-.545.495-.05 7.52-1.092 9.3-1.29 1.782-.199 12.467-1.192 14.248-1.29 1.78-.1 3.413-.2 4.106-.05" transform="translate(-144 -76) translate(0 66) translate(144 10) translate(0 .408)"/>
                        <path fill="#090A0F" d="M25.28 17.118c-.48 0-1.376.466-1.433.495.023-.057.417-.992.739-2.778.273-1.513.743-3.672.743-3.672s.432 3.185.581 3.842c.234 1.039.69 2.513.703 2.559-.052-.026-.855-.446-1.333-.446m12.352-6.608c-.395 0-4.686.95-5.773 1.1-.76.105-3.114.5-4.531.71-.116-.909-.222-1.77-.318-2.495-.347-2.582.198-9.728.198-9.728l-1.78.148s-.693 4.466-1.83 11.415c-1.14 6.947-3.86 10.421-3.958 10.67-.1.246-.397.446-.299.743.1.298.645.397.893.596.246.2.346.15.542 0 .2-.148 3.069-5.111 4.553-5.013 1.484.1 2.522 4.02 2.522 4.32 0 .297.098.395.297.644.198.248 1.435-.15 1.682-.15.248 0 .248-.247.197-.544-.05-.298-.84-2.235-1.534-4.22-.384-1.105-.693-2.934-.95-4.784.395.304.813.518 1.149.467.989-.15 2.929-.396 2.929-.396s0 3.03-.095 5.29c-.068 1.606-.526 5.317-.725 6.16-.196.845-.18 1.75-1.267 2.345-1.09.596-3.155.582-3.403-.163-.246-.744-.246-1.885.1-2.282.346-.398.346-1.937-.15-2.431-.492-.497-1.533-1.59-1.927-.647-.398.945-.793 2.78-.447 3.376.348.595.841 2.382 1.536 3.027.691.645 2.26 1.733 4.214 1.157 1.01-.297 2.642-.87 3.538-5.907 1.028-5.772 1.04-10.324 1.04-10.324s1.04-.743 2.126-.743c1.09 0 2.362.24 2.41-.306.05-.546-.544-2.035-.939-2.035M57.04 17.47c-.549-.124-.73 1.108-.73 1.108s.347-.021.625-.213c.394-.274.7-.76.106-.894m-.962 2.357s.763.441 1.636-.395c.874-.837 1.086-1.37.891-2.354-.195-.983-1.228-1.019-1.44-1.019-.214 0-1.676.307-2.315 2.073s-.59 2.71-.035 3.692c.553.983 1.87 1.033 2.473.766.603-.267 1.619-1.175 1.619-1.175s.088.374.177.676c.089.303.067.424.355.535.288.11.554.267.82-.09.267-.355.337-1.356.373-1.605.035-.25.372-3.372.372-3.372s.27-.054.395-.054c.124 0 .301-.053.301-.053s-.16 1.984-.195 2.624c-.035.641-.106 1.535.018 1.962.124.427.479.84.692.876.213.036.75.11.89-.089.143-.2.036-.36.036-.537 0-.179 0-2.572.125-3.248.124-.676.248-2.015.248-2.015s1.757-.556 2.151-.752c.394-.195 1.782-1.014 1.853-1.121.07-.107.014-.178-.093-.231-.106-.054-.869-.45-1.047-.45-.177 0-.695.04-1.299.325-.603.285-1.28.463-1.28.463s.159-1.268.23-1.624c.07-.356.177-.965.088-1.072-.088-.106-.426-.391-.71-.391-.283 0-.677-.018-.73.16-.054.178-.39 1.816-.48 2.3-.089.484-.16 1.09-.16 1.09s-.425.106-.567.106h-.323s.092-.983.18-1.463c.09-.48.249-.983.231-1.179-.017-.195-.12-.285-.283-.498-.164-.214-.59-.695-.767-.516-.178.178-.568 1.214-.693 1.748-.123.534-.18 1.89-.234 2.015-.053.124-.195.09-.373.124-.177.036-.337.36-.248.681.089.32.124.712.284.783.16.071.266.143.266.143s-.035.52-.195.822c-.16.303-.582 1.371-1.206 2.033-.626.663-1.278 1.25-1.637 1.036-.359-.213-.696-.822-.554-1.392.142-.57.16-.338.16-.338" transform="translate(-144 -76) translate(0 66) translate(144 10) translate(0 .408)"/>
                    </g>
                </g>
            </g>
        </g>
    </g>
</svg>
