<?xml version="1.0" encoding="utf-8"?>
<!-- Generator: Adobe Illustrator 25.2.1, SVG Export Plug-In . SVG Version: 6.00 Build 0)  -->
<svg version="1.1" id="Layer_1" xmlns="http://www.w3.org/2000/svg" xmlns:xlink="http://www.w3.org/1999/xlink" x="0px" y="0px"
	 viewBox="55 29 495 120" style="enable-background:new 0 0 605.48 178.43;" xml:space="preserve">
<style type="text/css">
	.st0{fill:#090A0F;}
	.st1{fill:#090A0F;}
</style>

<rect x="141.64" y="80.55" class="st1" width="43.33" height="15.63"/>
<path class="st1" d="M310.74,60.67h17v82.92h-17V60.67z M284.91,34.83h68.83v15.63h-68.83V34.83z"/>
<path class="st1" d="M528.83,143.59h-16.99V96.18h-26.48V80.55h26.48V34.83h16.99V143.59z M475.24,143.59h-16.99V34.83h16.99V143.59
	z"/>
<rect x="60.79" y="80.55" class="st1" width="43.33" height="15.63"/>
<rect x="114.38" y="34.83" class="st1" width="16.99" height="108.76"/>
<path class="st1" d="M404.16,33.13c-22.67,0-33.41,11.73-33.41,31.61v18.61h17.05v-19.8c0-10.37,5.97-14.79,16.36-14.79
	c10.57,0,16.36,4.42,16.36,14.79v5.78h17.04v-4.59C437.57,44.86,427.01,33.13,404.16,33.13"/>
<path class="st1" d="M420.53,114.87c0,10.2-5.8,14.79-16.36,14.79c-10.4,0-16.36-4.59-16.36-14.79V93.45h-17.05v20.06
	c0,19.88,10.74,31.78,33.41,31.78c22.84,0,33.41-11.9,33.41-31.78v-4.42h-17.04V114.87z"/>
<polygon class="st1" points="233.24,97.54 243.27,53.87 250.95,87.3 267.32,87.3 254.14,34.83 232.39,34.83 208.94,129.49 
	208.94,143.59 225.93,143.59 225.93,129.15 229.67,113.17 256.86,113.17 260.77,129.83 260.77,143.59 277.76,143.59 277.76,129.49 
	269.79,97.54 "/>
<rect x="167.98" y="106.36" class="st1" width="16.99" height="37.23"/>
<rect x="167.98" y="34.83" class="st1" width="16.99" height="35.52"/>
</svg>
